<svg version="1.1" xmlns="http://www.w3.org/2000/svg" xmlns:xlink="http://www.w3.org/1999/xlink" width="344.68522" height="103.61518" viewBox="0,0,344.68522,103.61518"><defs><linearGradient x1="111.40192" y1="176.43639" x2="270.47727" y2="178.0341" gradientUnits="userSpaceOnUse" id="color-1"><stop offset="0" stop-color="#4694ff" stop-opacity="0"/><stop offset="1" stop-color="#4694ff"/></linearGradient></defs><g transform="translate(-63.52846,-128.19241)"><g data-paper-data="{&quot;isPaintingLayer&quot;:true}" fill-rule="nonzero" stroke-linejoin="miter" stroke-miterlimit="10" stroke-dasharray="" stroke-dashoffset="0" style="mix-blend-mode: normal"><path d="M66.02846,179.78302l204.44726,-1.59551" fill="none" stroke="url(#color-1)" stroke-width="5" stroke-linecap="round"/><path d="M277.25075,179.67014v-6.08464h4.12184v6.08464z" fill="#656565" stroke="none" stroke-width="0" stroke-linecap="butt"/><path d="M273.16778,182.15224v-7.7121h34.36912v7.7121z" fill="#494949" stroke="none" stroke-width="0" stroke-linecap="butt"/><path d="M267.63314,181.24039c-1.44724,-0.82965 -1.38178,-5.43151 0,-6.37905c0.62033,-0.42539 5.69205,-0.39255 5.69205,-0.39255l-0.09814,7.65485c0,0 -4.82723,-0.44373 -5.59391,-0.88324z" fill="#494949" stroke="none" stroke-width="0" stroke-linecap="butt"/><path d="M363.05168,164.14558l-2.2822,-21.80805c0,0 5.15444,-0.94058 7.20979,-1.31555c0.71272,-0.13009 6.8392,-5.6026 6.8392,-5.6026l4.40688,0.40362l0.35465,4.00833c0,0 -7.01995,5.77638 -6.84958,7.40405c0.421,4.02314 1.55512,14.86037 1.55512,14.86037z" fill="#3f3f3f" stroke="none" stroke-width="0" stroke-linecap="butt"/><path d="M314.66271,176.89338l0.30709,-35.83044c0,0 40.34463,-1.04777 41.16836,-0.05428c2.61058,3.14855 1.43099,32.79597 -0.30709,35.83044c-0.2335,2.92141 -41.16836,0.05428 -41.16836,0.05428z" fill="#424141" stroke="none" stroke-width="0" stroke-linecap="butt"/><path d="M343.45803,139.15144l0.33208,-10.95903l15.79362,0.55394l-0.33208,10.95907z" fill="#4d4d4d" stroke="none" stroke-width="0" stroke-linecap="butt"/><path d="M335.02653,192.41766c0.18988,-0.99868 5.13187,-3.01335 6.45731,-5.45771c1.37281,-2.53167 1.64264,-9.47955 1.64264,-9.47955l13.97041,5.2603c0,0 -11.38872,12.76277 -14.68723,13.87702c-2.02565,0.68427 -7.62451,-2.9303 -7.38313,-4.20006z" fill="#707070" stroke="none" stroke-width="0" stroke-linecap="butt"/><path d="M321.9421,198.85574c-0.5698,-0.49492 -3.09447,-5.72621 -4.30146,-9.81549c-0.36994,-1.25338 2.36742,-8.84047 2.3393,-9.70999c-0.16207,-5.0116 8.51769,-0.95362 8.51769,-0.95362c0,0 -6.34984,6.60374 -4.1791,10.95682c2.04549,4.10192 4.81999,8.11492 7.88146,8.22931c3.12722,0.11681 11.86472,1.95025 17.62968,-1.63443c6.75511,-4.20046 10.38058,-13.92888 10.38058,-13.92888c0,0 3.55168,-2.35982 3.40457,1.95552c-0.11918,3.49647 -3.79793,13.63604 -4.80208,15.05914c-1.60019,2.26784 -9.13549,4.99494 -19.30507,5.05123c-8.39911,0.04651 -15.3488,-3.28406 -17.56558,-5.20952z" fill="#595959" stroke="none" stroke-width="0" stroke-linecap="butt"/><path d="M197.51901,137.83726l0.00978,-9.1756l15.72961,0.0167l-0.00978,9.1756z" fill="#984d4b" stroke="none" stroke-width="0" stroke-linecap="butt"/><path d="M315.37341,183.74498c0,0 -3.39608,-0.93201 -4.63876,-2.1963c-0.59354,-0.60388 -0.68282,-7.82545 -0.68282,-7.82545l-115.73794,1.06918l-0.20827,-34.32107l122.64768,-0.1352c0,0 -2.3875,32.47661 -0.92284,34.64321c1.5313,2.26526 36.66347,1.59491 36.66347,1.59491l4.76772,-12.21639l-0.64979,-26.10689c0,0 5.69619,12.25007 11.20105,16.76084c4.6553,3.81459 19.70877,8.56694 19.70877,8.56694c0,0 -1.00419,9.20389 -3.92999,12.77428c-3.83036,4.67425 -16.37171,14.01338 -16.37171,14.01338c0,0 -14.99778,-5.94783 -18.3158,-7.26374c-1.23801,-0.49101 -33.53074,0.64222 -33.53074,0.64222z" fill="#595959" stroke="none" stroke-width="0" stroke-linecap="butt"/><path d="M372.28655,228.8105c0,0 5.14378,-22.21899 3.71082,-32.27088c-0.27116,-1.90192 -0.98074,-4.14119 -1.92602,-6.4823c-2.26575,0.1997 -4.20706,1.27507 -5.77055,1.10121c-4.13443,-0.45983 -5.87838,-2.92704 -5.87838,-2.92704c0,0 2.15087,-1.62739 6.27311,-5.18896c4.38865,-3.79173 7.73279,-2.39551 9.73075,-4.11592c4.47307,-3.85165 8.87837,-15.50915 8.87837,-15.50915c0,0 2.0469,0.77577 4.33441,3.93936c1.49931,2.07345 3.20041,4.6934 4.7237,7.68531c5.25873,10.32868 9.88514,24.4956 10.4308,30.45184c0.98637,10.76758 1.42012,26.31363 1.42012,26.31363z" fill="#2e2e2e" stroke="none" stroke-width="0" stroke-linecap="butt"/><path d="M194.06812,141.85492l-0.01223,-7.48907l160.5531,-1.06326l9.61789,2.70727l2.02372,18.50677l-6.75418,-10.37604c0,0 -5.42725,-3.34196 -6.95311,-3.33191c-11.95683,0.07894 -158.4751,1.04624 -158.4751,1.04624z" fill="#595959" stroke="none" stroke-width="0" stroke-linecap="butt"/><path d="M272.63822,182.41744l-3.33673,-48.77448h4.71067l3.43487,48.87322z" fill="#8c8c8c" stroke="none" stroke-width="NaN" stroke-linecap="butt"/><path d="M279.80238,182.3199l9.42133,-48.77509l13.05248,0.09814l-9.91202,48.77509z" fill="#393939" stroke="none" stroke-width="0" stroke-linecap="butt"/><path d="M278.22054,182.4236l31.80739,-48.96939l5.90124,0.05046l-32.34173,49.02737z" data-paper-data="{&quot;index&quot;:null}" fill="#8c8c8c" stroke="none" stroke-width="NaN" stroke-linecap="butt"/><path d="M294.31755,182.31318l-12.55157,-48.72817l6.28949,-0.07903l13.33671,48.63003z" fill="#8c8c8c" stroke="none" stroke-width="0" stroke-linecap="butt"/><path d="M72.14109,175.17583l-0.35477,-40.46691l123.0857,-0.34487l0.26947,40.46691z" fill="#3c3c3c" stroke="none" stroke-width="0" stroke-linecap="butt"/><path d="M373.5638,222.42557l1.37957,-8.16236l32.41951,-2.18431l0.45987,8.50727z" fill="#7a7a7a" stroke="none" stroke-width="0" stroke-linecap="butt"/><path d="M379.5542,221.95315l-4.67916,-6.82882l26.74159,-28.46498l2.90773,8.78788z" fill="#7a7a7a" stroke="none" stroke-width="0" stroke-linecap="butt"/><path d="M376.20885,204.28649l0.10421,-4.97824l30.27725,3.80063l0.54087,6.41768z" fill="#7a7a7a" stroke="none" stroke-width="0" stroke-linecap="butt"/><path d="M380.72606,160.93965l6.95154,2.70324l13.92212,67.76313l-6.41265,-0.59716z" fill="#7a7a7a" stroke="none" stroke-width="0" stroke-linecap="butt"/><path d="M375.51819,194.14471l-1.37957,-3.67883l21.95789,-16.32471l1.83939,4.13866z" fill="#7a7a7a" stroke="none" stroke-width="0" stroke-linecap="butt"/><path d="M106.3433,175.08357v-40.53505h9.68668v40.53505z" fill="#3d9a4d" stroke="none" stroke-width="0" stroke-linecap="butt"/></g></g></svg>
