<svg version="1.1" xmlns="http://www.w3.org/2000/svg" xmlns:xlink="http://www.w3.org/1999/xlink" width="416.67834" height="150.39189" viewBox="0,0,416.67834,150.39189"><g transform="translate(-31.66083,-104.80405)"><g data-paper-data="{&quot;isPaintingLayer&quot;:true}" fill-rule="nonzero" stroke-linecap="butt" stroke-linejoin="miter" stroke-miterlimit="10" stroke-dasharray="" stroke-dashoffset="0" style="mix-blend-mode: normal"><path d="M217.17363,183.00773v-23.90621h36.61583v23.90621z" fill="#42444c" stroke="none" stroke-width="0"/><path d="M94.42229,215.4873c-2.57964,-2.31562 -2.82299,-17.79854 0,-19.97226c0.56255,-0.43314 5.19123,-0.12734 13.84836,-0.18654c23.30266,-0.15928 66.34332,0.18654 66.34332,0.18654v19.97226c0,0 -42.32782,1.30376 -65.84146,0.97926c-8.85227,-0.12212 -13.30638,-0.04225 -14.35019,-0.97926z" fill="#4b4e5b" stroke="none" stroke-width="0"/><g fill="#4a4e5c" stroke="none" stroke-width="0"><path d="M363.43063,175.41507l-1.51307,-27.30372l61.48486,-0.75653v28.06025z"/><path d="M413.63654,207.87683c-6.89526,-3.78358 -6.40455,-12.61466 -9.91799,-16.49291c-5.87383,-6.48367 -22.25141,-13.16819 -22.12243,-18.68428c0.35859,-15.33712 32.04042,-25.34482 32.04042,-25.34482c0,0 29.97655,-3.57602 33.01197,0c6.3297,7.45692 -7.15256,19.91375 -7.15256,29.71079c0,10.3469 7.15256,30.81122 7.15256,30.81122c0,0 -25.74237,8.00907 -33.01197,0z"/></g><path d="M326.50427,148.85063v-11.85226h13.2392v11.85226z" fill="#565c74" stroke="none" stroke-width="0"/><path d="M294.65728,211.05319c0.01476,-1.15875 3.82505,-4.06286 4.57508,-7.00604c0.7768,-3.04831 0.00817,-10.97941 0.00817,-10.97941l12.33601,4.24343c0,0 -7.62106,15.9223 -10.19713,17.59872c-1.58192,1.02947 -6.74093,-2.38349 -6.72211,-3.85677z" fill="#4a4a4a" stroke="none" stroke-width="0"/><path d="M189.06889,149.2289v-18.1566h15.88704v18.1566z" fill="#4a4d59" stroke="none" stroke-width="0"/><path d="M188.69063,194.99864v-54.84807h18.91314v54.84807z" fill="#4a4d59" stroke="none" stroke-width="0"/><path d="M314.93985,227.68403c0,0 -40.03585,-7.15256 -40.03585,-9.13095c0,-4.70957 0,-23.88102 0,-23.88102h11.23815v19.66675l32.30962,5.61906z" fill="#595d6b" stroke="none" stroke-width="0"/><path d="M248.4293,197.51934l4.68671,-57.60993l92.99078,4.77022l2.43354,3.71362l14.33871,-0.28459l6.32291,24.56516l-14.00043,26.52062z" fill="#595d6b" stroke="none" stroke-width="0"/><path d="M318.22065,255.19595l-6.00864,-57.45766l24.07747,-2.51791l6.00867,57.45766z" fill="#595d6b" stroke="none" stroke-width="0"/><path d="M158.17164,176.95196l0.41425,-14.29846l35.25323,1.02111l-0.41418,14.29853z" fill="#ff5959" stroke="none" stroke-width="0"/><path d="M158.17174,176.95199l0.41425,-14.29846l32.35262,0.93714l-0.41415,14.29849z" fill="#3a3d3e" stroke="#3a3d3e" stroke-width="0.025"/><path d="M125.80649,140.26189l127.8209,-0.22243l0.73249,22.01848c0,0 -110.14792,-2.07256 -124.54121,-2.3434c-3.01839,-0.05678 -20.73027,3.99512 -20.12705,-0.77028z" fill="#595d6b" stroke="none" stroke-width="0"/><path d="M31.66086,180.27347l1.31019,-22.89547c0,0 38.01623,0.57757 77.73252,0.8038c39.27688,0.22374 82.4639,1.16964 82.4639,1.16964l-1.31019,22.89547c0,0 -43.68002,0.45755 -85.15103,-0.43649c-37.55792,-0.80967 -75.04542,-1.53695 -75.04542,-1.53695z" fill="#595d6b" stroke="none" stroke-width="0"/><path d="M203.12781,193.75317l6.29428,-11.88434h51.08056v12.77565c0,0 -42.74361,0.29712 -48.65968,0.29712c-1.31957,0 -8.71516,-1.1884 -8.71516,-1.1884z" fill="#595d6b" stroke="none" stroke-width="0"/><path d="M161.87201,215.83047l1.81038,-24.97508l113.56459,2.74752l-1.81038,24.97514z" fill="#595d6b" stroke="none" stroke-width="0"/><path d="M163.7184,201.51403l-18.23057,-24.14113l25.02792,-6.67612l18.23057,24.14113z" fill="#595d6b" stroke="none" stroke-width="0"/><path d="M189.06889,134.51865v-29.7146h15.88704v29.7146z" fill="#545664" stroke="none" stroke-width="0"/><path d="M213.72383,218.62082l0.07607,-16.42724l59.22448,0.27415l-0.076,16.10868z" fill="#4a4d59" stroke="none" stroke-width="0"/><path d="M176.42343,252.55733l1.12995,-57.6299l38.3385,0.78212l-1.13001,57.6299z" fill="#4d4f5c" stroke="none" stroke-width="0"/><path d="M183.38837,229.57619l0.74164,-34.34259l25.50016,0.45873l-0.74171,34.34259z" fill="#43444f" stroke="none" stroke-width="0"/><path d="M183.85753,208.54536l0.15663,-8.2048l25.53575,0.23683l-0.15663,8.33636z" fill="#646677" stroke="none" stroke-width="0"/><path d="M184.20404,233.0601l0.07889,-9.75044l24.03991,0.19441l-0.07889,9.75047z" fill="#59a7ff" stroke="none" stroke-width="0"/><path d="M184.20411,233.06013l0.07889,-9.75044l22.06195,0.17844l-0.07885,9.75044z" fill="#3a3d3e" stroke="#3a3d3e" stroke-width="0.1"/><path d="M177.47128,243.62349l3.79379,-14.2896l30.59637,0.25041l1.41781,14.28957z" fill="#4d4f5c" stroke="none" stroke-width="0"/></g></g></svg>
