<svg version="1.1" xmlns="http://www.w3.org/2000/svg" xmlns:xlink="http://www.w3.org/1999/xlink" width="410.38428" height="120.10359" viewBox="0,0,410.38428,120.10359"><defs><linearGradient x1="34.80786" y1="171.59157" x2="237.45905" y2="171.59157" gradientUnits="userSpaceOnUse" id="color-1"><stop offset="0" stop-color="#ff5600"/><stop offset="1" stop-color="#ff9300"/></linearGradient></defs><g transform="translate(-34.80786,-119.94821)"><g data-paper-data="{&quot;isPaintingLayer&quot;:true}" fill-rule="nonzero" stroke-linejoin="miter" stroke-miterlimit="10" stroke-dasharray="" stroke-dashoffset="0" style="mix-blend-mode: normal"><g><path d="M241.61198,197.55819c-0.13215,-1.0596 2.98104,-4.1895 3.29579,-6.97039c0.32593,-2.88025 -1.37252,-10.02342 -1.37252,-10.02342l11.79409,2.32313c0,0 -4.95552,15.49237 -7.09629,17.3464c-1.31466,1.13859 -6.45299,-1.32847 -6.62099,-2.67568z" fill="#606060" stroke="none" stroke-width="0" stroke-linecap="butt"/><path d="M235.26786,206.57851c-0.54192,-0.3738 -3.64106,-4.9525 -5.48753,-8.66928c-0.56595,-1.13918 -0.25128,-8.92836 -0.47212,-9.75968c-1.27296,-4.79146 6.18281,-2.44601 6.18281,-2.44601c0,0 -3.25564,7.49166 -0.62425,11.28918c2.47955,3.57843 5.48662,6.94047 7.81389,6.50102c2.37721,-0.44892 9.36543,-0.25359 12.87494,-4.73627c4.11227,-5.25272 4.60258,-15.26098 4.60258,-15.26098c0,0 2.1274,-2.90731 3.00802,1.2699c0.71354,3.38456 0.27762,13.79786 -0.15021,15.34693c-0.68178,2.46857 -5.71888,6.44415 -13.34933,8.32354c-6.30202,1.55222 -12.29041,-0.40408 -14.39879,-1.85825z" fill="#8b8b8b" stroke="none" stroke-width="0" stroke-linecap="butt"/><path d="M34.80786,177.84449v-12.50584h202.65119v12.50584z" fill="url(#color-1)" stroke="none" stroke-width="0" stroke-linecap="butt"/><path d="M160.91913,216.95297v-27.35649h57.69732v27.35649z" fill="#3b4d8a" stroke="none" stroke-width="0" stroke-linecap="butt"/><path d="M165.17648,212.77337v-23.38154h53.3337v23.38154z" fill="#c7a856" stroke="none" stroke-width="0" stroke-linecap="butt"/><path d="M193.34399,191.7191l7.64446,3.45893l2.69976,-4.05592l12.39621,4.42726l1.97504,3.06958c0,0 -3.18294,0.20433 -3.22564,0.48645c-0.0226,0.14946 -7.769,-3.11299 -8.01245,-2.63697c-0.77422,1.5139 -2.30547,4.10308 -2.30547,4.10308l-13.14035,-4.50206l-1.16584,-4.00356z" fill="#8a3b3b" stroke="none" stroke-width="0" stroke-linecap="butt"/><path d="M184.84828,191.47717l1.91937,5.89249l-0.94071,2.69462l-0.04429,3.63995l1.57458,2.55941l-1.26258,3.91825" fill="none" stroke="#8a3b3b" stroke-width="0.5" stroke-linecap="round"/><path d="M180.95319,195.76942l1.09529,4.51507l-0.8686,3.70381l0.63917,3.25588l-1.95025,2.54843" fill="none" stroke="#8a3b3b" stroke-width="0.5" stroke-linecap="round"/><path d="M273.59687,240.05179l-11.73273,-51.1973l22.49579,-5.15528l11.73273,51.19726z" fill="#525252" stroke="none" stroke-width="0" stroke-linecap="butt"/><path d="M97.30286,191.14615v-16.48492h213.28115v16.48492z" fill="#9c7b67" stroke="none" stroke-width="0" stroke-linecap="butt"/><path d="M238.83185,176.48024v-24.20916h71.97956v24.20916z" fill="#725a4b" stroke="none" stroke-width="0" stroke-linecap="butt"/><path d="M84.00124,192.96517v-23.87476h15.9165v23.87476z" fill="#656565" stroke="none" stroke-width="0" stroke-linecap="butt"/><g stroke="none" stroke-width="0" stroke-linecap="butt"><path d="M155.44604,218.16943v-37.21657h6.31977v37.21657z" fill="#989898"/><path d="M161.31995,212.28239c0,1.38255 -1.16954,2.50335 -2.61222,2.50335c-1.44267,0 -2.61222,-1.1208 -2.61222,-2.50335c0,-1.38255 1.16954,-2.50339 2.61222,-2.50339c1.44267,0 2.61222,1.1208 2.61222,2.50339z" fill="#828282"/><path d="M161.16691,184.12243c0,1.38255 -1.1695,2.50335 -2.61222,2.50335c-1.44267,0 -2.61222,-1.1208 -2.61222,-2.50335c0,-1.38255 1.16954,-2.50339 2.61222,-2.50339c1.44267,0 2.61222,1.1208 2.61222,2.50339z" fill="#828282"/></g><path d="M238.88959,176.56687v-8.38195h22.21856v8.38195z" fill="#734a3d" stroke="none" stroke-width="0" stroke-linecap="butt"/><path d="M195.41676,176.39943v-6.1721h51.72864v6.1721z" fill="#6f6f6f" stroke="none" stroke-width="0" stroke-linecap="butt"/><path d="M86.27499,185.57537v-16.48492h118.80536v16.48492z" fill="#3d3d3d" stroke="none" stroke-width="0" stroke-linecap="butt"/><g stroke="none" stroke-width="0" stroke-linecap="butt"><g><path d="M218.17577,218.63757v-37.21653h6.31977v37.21653z" fill="#989898"/><path d="M223.76163,184.88762c0,1.38255 -1.16954,2.50335 -2.61222,2.50335c-1.44267,0 -2.61222,-1.1208 -2.61222,-2.50335c0,-1.38255 1.16954,-2.50335 2.61222,-2.50335c1.44267,0 2.61222,1.12076 2.61222,2.50335z" fill="#828282"/></g><path d="M223.91466,214.73106c0,1.38255 -1.16954,2.50335 -2.61222,2.50335c-1.44267,0 -2.61218,-1.1208 -2.61218,-2.50335c0,-1.38255 1.16954,-2.50335 2.61218,-2.50335c1.44267,0 2.61222,1.12076 2.61222,2.50335z" fill="#828282"/></g><g stroke="none" stroke-width="0" stroke-linecap="butt"><g><path d="M332.63974,192.54827v-7.38979h89.81456v7.38979z" fill="#8b8b8b"/><path d="M332.63974,164.69439v-7.38979h90.38302v7.38979z" fill="#8b8b8b"/><path d="M325.08752,187.43227v-28.4223h8.12068v28.4223z" fill="#828282"/><path d="M296.93353,189.46656l1.74361,-12.43811l38.97267,5.4635l-1.74365,12.43807z" fill="#989898"/><path d="M290.57469,166.96818v-11.93738h51.16018v11.93738z" fill="#989898"/><path d="M419.04363,203.91723c0,0 -0.94468,-51.44711 0,-52.29709c7.98985,-7.18869 26.14851,-9.09513 26.14851,-9.09513l-2.27375,61.39222z" fill="#424242"/></g><path d="M306.95544,184.59002c0,1.80517 -1.52703,3.26857 -3.41071,3.26857c-1.88368,0 -3.41067,-1.4634 -3.41067,-3.26857c0,-1.80517 1.52703,-3.26857 3.41067,-3.26857c1.88368,0 3.41071,1.46336 3.41071,3.26857z" fill="#828282"/><path d="M300.39935,160.75319c0,1.80517 -1.52703,3.26857 -3.41071,3.26857c-1.88368,0 -3.41067,-1.4634 -3.41067,-3.26857c0,-1.80517 1.52699,-3.26857 3.41067,-3.26857c1.88368,0 3.41071,1.46336 3.41071,3.26857z" fill="#828282"/></g><g stroke="none" stroke-width="0" stroke-linecap="butt"><path d="M243.35775,147.35531v-8.22354h7.95825v8.22354z" fill="#404040"/><path d="M283.70397,152.36762v-7.95825h12.33529v7.95825z" fill="#4d4d4d"/><path d="M240.35243,151.94873v-7.95825h12.33529v7.95825z" fill="#4d4d4d"/><path d="M253.88146,147.80209v-27.85388h19.49772v27.85388z" fill="#333333"/><path d="M214.88603,145.41461v-22.2831l24.67496,0.70908l23.87038,2.47418l21.13449,-3.37681l30.59415,0.1935v22.2831l-29.55997,0.40595l-21.77071,-5.57881l-23.30872,4.9484z" fill="#3f3f3f"/><path d="M241.54617,182.02257v-35.41422h9.94781v35.41422z" fill="#989898"/><path d="M284.93961,182.42048v-35.41422h9.94781v35.41422z" fill="#989898"/><path d="M249.92131,151.43065c0,1.80517 -1.52703,3.26857 -3.41071,3.26857c-1.88368,0 -3.41067,-1.4634 -3.41067,-3.26857c0,-1.80517 1.52703,-3.26857 3.41067,-3.26857c1.88368,0 3.41071,1.46336 3.41071,3.26857z" fill="#828282"/><path d="M293.42641,151.96119c0,1.80517 -1.52703,3.26857 -3.41071,3.26857c-1.88368,0 -3.41067,-1.4634 -3.41067,-3.26857c0,-1.80517 1.52703,-3.26857 3.41067,-3.26857c1.88368,0 3.41071,1.46336 3.41071,3.26857z" fill="#828282"/><path d="M293.42641,177.42759c0,1.80517 -1.52703,3.26857 -3.41071,3.26857c-1.88368,0 -3.41067,-1.4634 -3.41067,-3.26857c0,-1.80517 1.52703,-3.26857 3.41067,-3.26857c1.88368,0 3.41071,1.46336 3.41071,3.26857z" fill="#828282"/><path d="M249.92131,177.42759c0,1.80517 -1.52703,3.26857 -3.41071,3.26857c-1.88368,0 -3.41067,-1.4634 -3.41067,-3.26857c0,-1.80517 1.52703,-3.26857 3.41067,-3.26857c1.88368,0 3.41071,1.46336 3.41071,3.26857z" fill="#828282"/></g></g></g></g></svg>
