<svg version="1.1" xmlns="http://www.w3.org/2000/svg" xmlns:xlink="http://www.w3.org/1999/xlink" width="343.88846" height="165.87007" viewBox="0,0,343.88846,165.87007"><g transform="translate(-68.05577,-97.06497)"><g data-paper-data="{&quot;isPaintingLayer&quot;:true}" fill-rule="nonzero" stroke="none" stroke-width="0" stroke-linecap="butt" stroke-linejoin="miter" stroke-miterlimit="10" stroke-dasharray="" stroke-dashoffset="0" style="mix-blend-mode: normal"><path d="M341.86084,152.79744l-5.66875,-29.18943c0,0 6.85149,-1.88175 9.58355,-2.63202c0.94738,-0.26023 8.57466,-8.37936 8.57466,-8.37936l6.00099,0.02274l0.95434,5.37271c0,0 -8.79817,8.63553 -8.37504,10.81409c1.04574,5.38482 3.86275,19.89013 3.86275,19.89013z" fill="#777777"/><path d="M262.18521,175.02684l0.4916,-57.35837c0,0 64.58481,-1.6773 65.90346,-0.08689c4.17908,5.04028 2.29077,52.5007 -0.4916,57.35837c-0.37379,4.67667 -65.90346,0.08689 -65.90346,0.08689z" fill="#787676"/><path d="M308.28157,114.60849l0.5316,-17.54352l25.28288,0.88677l-0.5316,17.54358z" fill="#666666"/><path d="M294.78419,199.87854c0.30396,-1.59872 8.21524,-4.82385 10.33705,-8.73685c2.19763,-4.05277 2.62958,-15.17514 2.62958,-15.17514l22.36422,8.42084c0,0 -18.23138,20.431 -23.51172,22.21471c-3.24272,1.0954 -12.20553,-4.69091 -11.81912,-6.72357z" fill="#606060"/><path d="M274.10668,210.98995c-0.91215,-0.79227 -4.95371,-9.16667 -6.88589,-15.71292c-0.59221,-2.00645 3.78984,-14.15207 3.74481,-15.54403c-0.25945,-8.02271 13.63535,-1.52658 13.63535,-1.52658c0,0 -10.165,10.57145 -6.69001,17.53998c3.27447,6.56647 7.71597,12.99059 12.61686,13.17371c5.00614,0.18699 18.99338,3.12201 28.22208,-2.61644c10.81377,-6.72421 16.61753,-22.29774 16.61753,-22.29774c0,0 5.68563,-3.77766 5.45014,3.13045c-0.19079,5.59725 -6.07983,21.82895 -7.68731,24.10709c-2.56162,3.63042 -14.62434,7.99604 -30.90409,8.08615c-13.44553,0.07446 -24.5708,-5.25722 -28.11947,-8.33955z" fill="#8b8b8b"/><path d="M74.65831,112.50471l0.01565,-14.68856l25.1804,0.02673l-0.01565,14.68856z" fill="#bf615e"/><path d="M263.32293,185.99507c0,0 -5.43654,-1.49199 -7.42586,-3.51589c-0.95015,-0.9667 -11.02336,-36.95024 -11.02336,-36.95024c0,0 -177.0848,2.78591 -175.34624,2.24832c1.30352,-0.40303 -0.69392,-30.72361 -0.69392,-30.72361l196.69834,-0.5486c0,0 -3.82198,51.98946 -1.4773,55.45782c2.45135,3.6263 58.6919,2.55318 58.6919,2.55318l7.6323,-19.55635l-1.0402,-41.79264c0,0 9.11862,19.61026 17.93096,26.83122c7.45233,6.1065 31.55034,13.7142 31.55034,13.7142c0,0 -1.60754,14.73385 -6.29123,20.44943c-6.13175,7.48267 -26.20829,22.43301 -26.20829,22.43301c0,0 -24.00886,-9.52146 -29.32044,-11.628c-1.98184,-0.78603 -53.67694,1.02809 -53.67694,1.02809z" fill="#8b8b8b"/><path d="M354.43107,258.1372c0,0 8.2343,-35.56878 5.94038,-51.66012c-0.43408,-3.04465 -1.56999,-6.62934 -3.08323,-10.37705c-3.62707,0.31968 -6.73478,2.04117 -9.23766,1.76284c-6.61851,-0.73611 -9.41028,-4.68569 -9.41028,-4.68569c0,0 3.44317,-2.60516 10.04217,-8.30664c7.02547,-6.06991 12.37886,-3.8348 15.57726,-6.58888c7.16061,-6.16582 14.21275,-24.82748 14.21275,-24.82748c0,0 3.27673,1.24187 6.93864,6.30624c2.40014,3.31924 5.12331,7.51333 7.56184,12.30285c8.41833,16.53443 15.82441,39.21324 16.69791,48.74816c1.57901,17.23704 2.27338,42.12359 2.27338,42.12359z" fill="#444444"/><path d="M69.13404,118.9363l-0.82474,-11.98871l257.82304,-1.7021l15.39659,4.33387l3.23963,29.62615l-10.81228,-16.61025c0,0 -8.68809,-5.34991 -11.13074,-5.33381c-19.14082,0.12638 -253.69137,1.67485 -253.69137,1.67485z" fill="#8b8b8b"/><path d="M69.42421,148.05533l-1.36844,-40.49041l16.18409,-0.26132l0.76934,40.468z" fill="#8b8b8b"/></g></g></svg>
