<svg version="1.1" xmlns="http://www.w3.org/2000/svg" xmlns:xlink="http://www.w3.org/1999/xlink" width="423.92058" height="241.6495" viewBox="0,0,423.92058,241.6495"><g transform="translate(-28.03971,-59.17525)"><g data-paper-data="{&quot;isPaintingLayer&quot;:true}" fill-rule="nonzero" stroke="none" stroke-width="0" stroke-linecap="butt" stroke-linejoin="miter" stroke-miterlimit="10" stroke-dasharray="" stroke-dashoffset="0" style="mix-blend-mode: normal"><path d="M369.22832,92.49307c0,0 -2.01148,-11.39491 0,-12.29271c2.09515,-0.99538 18.54752,-1.03207 20.73501,0c2.8977,0.93431 0,12.29271 0,12.29271z" fill="#e900ff"/><path d="M423.2603,163.85035c0,0 -5.16862,-70.15895 0,-73.54197c7.33801,-4.80294 21.74934,-3.92599 24.7849,0c8.05242,10.4144 1.41713,67.04666 0,73.54203c-6.71812,30.79245 -24.7849,0 -24.7849,0z" fill="#434345"/><path d="M304.63146,205.35127c0.18028,-2.78373 5.93204,-8.87099 7.39067,-15.7736c1.51068,-7.1492 1.52281,-26.40766 1.52281,-26.40766l16.74314,13.11512c0,0 -12.89632,36.5027 -16.74539,39.92783c-2.36375,2.10332 -9.14038,-7.32216 -8.91116,-10.86157z" fill="#727272"/><path d="M30.20529,122.86139c-2.75417,-0.44844 -3.0177,-17.37363 0,-20.56363c3.27441,-3.46145 126.98033,0 126.98033,0v20.56363c0,0 -116.99615,1.6255 -126.98033,0z" fill="#6b6565"/><path d="M34.72002,145.82478c-2.61161,-0.38238 -2.86156,-14.81473 0,-17.53495c3.10498,-2.95157 120.40927,0 120.40927,0v17.53495c0,0 -110.94174,1.3861 -120.40927,0z" fill="#6b6565"/><path d="M364.01295,300.30243c-2.56402,-1.71985 -46.36639,-100.02952 -43.73332,-110.69338c2.37545,-9.62051 31.51954,-24.11491 33.99963,-22.67134c9.45529,5.50364 42.16029,105.68956 43.3649,110.50505c2.03677,8.14214 -27.86927,26.72445 -33.63115,22.85966z" fill="#252526"/><path d="M370.44012,232.24259c0,0 -87.73377,4.31397 -83.6712,-2.55524c2.91397,-4.92715 0,-51.61613 0,-51.61613h11.29307c0,0 0,31.60212 0,41.90615c0,6.02114 65.19164,1.53317 65.19164,1.53317z" fill="#252526"/><path d="M265.71382,191.17464v-103.60891c0,0 150.31464,-3.46371 159.67961,0c10.46651,3.87113 7.57722,93.94171 0,103.60891c-4.34743,5.54655 -159.67961,0 -159.67961,0z" fill="#252526"/><path d="M149.40776,150.84847c0,0 -20.05545,-55.65883 0,-64.19687c8.8894,-0.29169 144.64614,0 144.64614,0v64.19687z" fill="#252526"/><path d="M151.27242,95.10493c0,0 -2.01148,-11.39491 0,-12.29277c2.09515,-0.99538 18.54752,-1.03207 20.73501,0c2.8977,0.93431 0,12.29277 0,12.29277z" fill="#717171"/><path d="M187.25982,95.39528c0,0 -2.01148,-11.39491 0,-12.29271c2.09515,-0.99538 18.54752,-1.03207 20.73501,0c2.8977,0.93431 0,12.29271 0,12.29271z" fill="#717171"/><path d="M224.69835,94.81495c0,0 -2.01148,-11.39491 0,-12.29277c2.09515,-0.99538 18.54752,-1.03207 20.73501,0c2.8977,0.93431 0,12.29277 0,12.29277z" fill="#717171"/><path d="M260.39551,93.9442c0,0 -2.01148,-11.39491 0,-12.29271c2.09515,-0.99538 18.54752,-1.03207 20.73501,0c2.8977,0.93431 0,12.29271 0,12.29271z" fill="#717171"/><path d="M296.38297,94.23443c0,0 -2.01148,-11.39491 0,-12.29277c2.09515,-0.99538 18.54752,-1.03207 20.73501,0c2.8977,0.93431 0,12.29277 0,12.29277z" fill="#717171"/><path d="M333.82144,93.65386c0,0 -2.01148,-11.39491 0,-12.29277c2.09515,-0.99538 18.54752,-1.03207 20.73501,0c2.8977,0.93431 0,12.29277 0,12.29277z" fill="#717171"/><path d="M231.41976,150.56714h36.00525v40.63096c0,0 -27.2333,-3.56817 -28.00488,-4.43891c-6.01687,-6.78992 -8.00038,-36.19205 -8.00038,-36.19205z" fill="#252526"/><path d="M137.98543,247.7821l-16.96559,-101.44482l31.68409,-9.94158c0,0 22.0626,86.58286 16.96559,101.44488c-4.53533,13.22415 -31.68409,9.94158 -31.68409,9.94158z" fill="#3e3e3e"/><path d="M115.68404,164.25668c-1.40396,-2.37264 -2.59095,-19.53052 -2.22454,-35.73203c0.35014,-15.48167 0.75287,-26.51151 2.22454,-30.0901c2.61131,-1.85801 30.87954,-3.25052 30.87954,-3.25052l-17.065,69.07265c0,0 -11.89455,3.24479 -13.81454,0z" fill="#252526"/><path d="M128.68598,150.84847v-52.41392h28.28541v52.41392z" fill="#252526"/><path d="M151.03302,159.5841c0,5.9466 -4.63869,10.76716 -10.36089,10.76716c-5.72214,0 -10.36089,-4.82062 -10.36089,-10.76716c0,-5.9466 4.63869,-10.76722 10.36089,-10.76722c5.72214,0 10.36089,4.82062 10.36089,10.76722z" fill="#afa7b0"/><path d="M366.46288,86.32858c0,0 -1.51092,-10.16653 0,-11.43574c2.90666,-2.04384 28.77262,-2.24417 29.37916,0c0.94778,3.50673 0,11.43574 0,11.43574z" fill="#494949"/><path d="M377.16994,75.64541l5.67551,-16.02501l17.0266,-0.44515l-4.72962,16.47016z" fill="#494949"/></g></g></svg>
