<svg version="1.1" xmlns="http://www.w3.org/2000/svg" xmlns:xlink="http://www.w3.org/1999/xlink" width="103.13428" height="30.18341" viewBox="0,0,103.13428,30.18341"><defs><linearGradient x1="188.43286" y1="177.88687" x2="239.36143" y2="177.88687" gradientUnits="userSpaceOnUse" id="color-1"><stop offset="0" stop-color="#ff5600"/><stop offset="1" stop-color="#ff9300"/></linearGradient></defs><g transform="translate(-188.43286,-164.9083)"><g data-paper-data="{&quot;isPaintingLayer&quot;:true}" fill-rule="nonzero" stroke-linejoin="miter" stroke-miterlimit="10" stroke-dasharray="" stroke-dashoffset="0" style="mix-blend-mode: normal"><g><path d="M240.40511,184.41258c-0.03321,-0.26629 0.74917,-1.05287 0.82827,-1.75174c0.08191,-0.72384 -0.34493,-2.519 -0.34493,-2.519l2.96399,0.58383c0,0 -1.24538,3.89341 -1.78338,4.35935c-0.33039,0.28614 -1.62171,-0.33386 -1.66393,-0.67243z" fill="#606060" stroke="none" stroke-width="0" stroke-linecap="butt"/><path d="M238.81076,186.67949c-0.13619,-0.09394 -0.91504,-1.24462 -1.37908,-2.17869c-0.14223,-0.28629 -0.06315,-2.2438 -0.11865,-2.45272c-0.31991,-1.20415 1.55381,-0.61471 1.55381,-0.61471c0,0 -0.81818,1.88274 -0.15688,2.8371c0.62314,0.8993 1.37885,1.74422 1.96372,1.63378c0.59742,-0.11282 2.35364,-0.06373 3.23562,-1.19028c1.03346,-1.32007 1.15668,-3.83526 1.15668,-3.83526c0,0 0.53464,-0.73064 0.75595,0.31914c0.17932,0.85058 0.06977,3.46756 -0.03775,3.85686c-0.17134,0.62038 -1.43722,1.61949 -3.35484,2.0918c-1.58377,0.39009 -3.08872,-0.10155 -3.61858,-0.467z" fill="#8b8b8b" stroke="none" stroke-width="0" stroke-linecap="butt"/><path d="M188.43286,179.4583v-3.14286h50.92857v3.14286z" fill="url(#color-1)" stroke="none" stroke-width="0" stroke-linecap="butt"/><path d="M220.12607,189.28671v-6.875h14.5v6.875z" fill="#3b4d8a" stroke="none" stroke-width="0" stroke-linecap="butt"/><path d="M221.19599,188.23633v-5.87605h13.40337v5.87605z" fill="#c7a856" stroke="none" stroke-width="0" stroke-linecap="butt"/><path d="M228.27481,182.94515l1.92114,0.86927l0.67848,-1.0193l3.11531,1.11262l0.49635,0.77142c0,0 -0.79991,0.05135 -0.81064,0.12225c-0.00568,0.03756 -1.95244,-0.78233 -2.01362,-0.6627c-0.19457,0.38046 -0.57939,1.03115 -0.57939,1.03115l-3.30232,-1.13142l-0.29299,-1.00614z" fill="#8a3b3b" stroke="none" stroke-width="0" stroke-linecap="butt"/><path d="M226.13974,182.88435l0.48236,1.48085l-0.23641,0.67719l-0.01113,0.91476l0.39571,0.64321l-0.3173,0.9847" fill="none" stroke="#8a3b3b" stroke-width="0.5" stroke-linecap="round"/><path d="M225.16086,183.96304l0.27526,1.13469l-0.21829,0.93081l0.16063,0.81824l-0.49012,0.64045" fill="none" stroke="#8a3b3b" stroke-width="0.5" stroke-linecap="round"/><path d="M248.44328,195.09171l-2.94857,-12.86647l5.65345,-1.29558l2.94857,12.86646z" fill="#525252" stroke="none" stroke-width="0" stroke-linecap="butt"/><path d="M204.13857,182.80116v-4.14285h53.6v4.14285z" fill="#9c7b67" stroke="none" stroke-width="0" stroke-linecap="butt"/><path d="M239.70643,179.11545v-6.08404h18.08929v6.08404z" fill="#725a4b" stroke="none" stroke-width="0" stroke-linecap="butt"/><path d="M200.79572,183.2583v-6h4v6z" fill="#656565" stroke="none" stroke-width="0" stroke-linecap="butt"/><g stroke="none" stroke-width="0" stroke-linecap="butt"><path d="M218.75062,189.59242v-9.35295h1.58823v9.35295z" fill="#989898"/><path d="M220.2268,188.11294c0,0.34745 -0.29392,0.62912 -0.65648,0.62912c-0.36256,0 -0.65648,-0.28167 -0.65648,-0.62912c0,-0.34745 0.29392,-0.62913 0.65648,-0.62913c0.36256,0 0.65648,0.28167 0.65648,0.62913z" fill="#828282"/><path d="M220.18834,181.03602c0,0.34745 -0.29391,0.62912 -0.65648,0.62912c-0.36256,0 -0.65648,-0.28167 -0.65648,-0.62912c0,-0.34745 0.29392,-0.62913 0.65648,-0.62913c0.36256,0 0.65648,0.28167 0.65648,0.62913z" fill="#828282"/></g><path d="M239.72094,179.13722v-2.10648h5.58378v2.10648z" fill="#734a3d" stroke="none" stroke-width="0" stroke-linecap="butt"/><path d="M228.79572,179.09514v-1.55112h13v1.55112z" fill="#6f6f6f" stroke="none" stroke-width="0" stroke-linecap="butt"/><path d="M201.36714,181.40116v-4.14285h29.85715v4.14285z" fill="#3d3d3d" stroke="none" stroke-width="0" stroke-linecap="butt"/><g stroke="none" stroke-width="0" stroke-linecap="butt"><g><path d="M234.51532,189.71007v-9.35294h1.58823v9.35294z" fill="#989898"/><path d="M235.91911,181.22832c0,0.34745 -0.29392,0.62912 -0.65648,0.62912c-0.36256,0 -0.65648,-0.28167 -0.65648,-0.62912c0,-0.34745 0.29392,-0.62912 0.65648,-0.62912c0.36256,0 0.65648,0.28166 0.65648,0.62912z" fill="#828282"/></g><path d="M235.95757,188.72832c0,0.34745 -0.29392,0.62912 -0.65648,0.62912c-0.36256,0 -0.65647,-0.28167 -0.65647,-0.62912c0,-0.34745 0.29392,-0.62912 0.65647,-0.62912c0.36256,0 0.65648,0.28166 0.65648,0.62912z" fill="#828282"/></g><g stroke="none" stroke-width="0" stroke-linecap="butt"><g><path d="M263.28143,183.15353v-1.85714h22.57143v1.85714z" fill="#8b8b8b"/><path d="M263.28143,176.15353v-1.85714h22.71429v1.85714z" fill="#8b8b8b"/><path d="M261.38347,181.86782v-7.14285h2.04082v7.14285z" fill="#828282"/><path d="M254.30805,182.37906l0.43819,-3.12584l9.79428,1.37304l-0.4382,3.12583z" fill="#989898"/><path d="M252.71,176.72496v-3h12.85714v3z" fill="#989898"/><path d="M284.99572,186.01068c0,0 -0.23741,-12.92925 0,-13.14286c2.00794,-1.8066 6.57142,-2.28571 6.57142,-2.28571l-0.57142,15.42857z" fill="#424242"/></g><path d="M256.82667,181.15353c0,0.45366 -0.38376,0.82143 -0.85715,0.82143c-0.47339,0 -0.85714,-0.36777 -0.85714,-0.82143c0,-0.45366 0.38376,-0.82143 0.85714,-0.82143c0.47339,0 0.85715,0.36776 0.85715,0.82143z" fill="#828282"/><path d="M255.17905,175.16306c0,0.45366 -0.38376,0.82143 -0.85715,0.82143c-0.47339,0 -0.85714,-0.36777 -0.85714,-0.82143c0,-0.45366 0.38375,-0.82143 0.85714,-0.82143c0.47339,0 0.85715,0.36776 0.85715,0.82143z" fill="#828282"/></g><g stroke="none" stroke-width="0" stroke-linecap="butt"><path d="M240.84384,171.79602v-2.06667h2v2.06667z" fill="#404040"/><path d="M250.98331,173.05567v-2h3.1v2z" fill="#4d4d4d"/><path d="M240.08857,172.9504v-2h3.1v2z" fill="#4d4d4d"/><path d="M243.48857,171.9083v-7h4.9v7z" fill="#333333"/><path d="M233.68857,171.3083v-5.6l6.2011,0.1782l5.9989,0.62179l5.31134,-0.84863l7.68866,0.04863v5.6l-7.42876,0.10202l-5.47123,-1.40202l-5.85775,1.24359z" fill="#3f3f3f"/><path d="M240.38857,180.5083v-8.9h2.5v8.9z" fill="#989898"/><path d="M251.29384,180.6083v-8.9h2.5v8.9z" fill="#989898"/><path d="M242.49334,172.8202c0,0.45366 -0.38376,0.82143 -0.85715,0.82143c-0.47339,0 -0.85714,-0.36777 -0.85714,-0.82143c0,-0.45366 0.38376,-0.82143 0.85714,-0.82143c0.47339,0 0.85715,0.36776 0.85715,0.82143z" fill="#828282"/><path d="M253.42667,172.95353c0,0.45366 -0.38376,0.82143 -0.85715,0.82143c-0.47339,0 -0.85714,-0.36777 -0.85714,-0.82143c0,-0.45366 0.38376,-0.82143 0.85714,-0.82143c0.47339,0 0.85715,0.36776 0.85715,0.82143z" fill="#828282"/><path d="M253.42667,179.35353c0,0.45366 -0.38376,0.82143 -0.85715,0.82143c-0.47339,0 -0.85714,-0.36777 -0.85714,-0.82143c0,-0.45366 0.38376,-0.82143 0.85714,-0.82143c0.47339,0 0.85715,0.36776 0.85715,0.82143z" fill="#828282"/><path d="M242.49334,179.35353c0,0.45366 -0.38376,0.82143 -0.85715,0.82143c-0.47339,0 -0.85714,-0.36777 -0.85714,-0.82143c0,-0.45366 0.38376,-0.82143 0.85714,-0.82143c0.47339,0 0.85715,0.36776 0.85715,0.82143z" fill="#828282"/></g></g></g></g></svg>
