<svg version="1.1" xmlns="http://www.w3.org/2000/svg" xmlns:xlink="http://www.w3.org/1999/xlink" width="381.27979" height="227.78161" viewBox="0,0,381.27979,227.78161"><g transform="translate(-49.36011,-66.1092)"><g data-paper-data="{&quot;isPaintingLayer&quot;:true}" fill-rule="nonzero" stroke="none" stroke-width="0" stroke-linecap="butt" stroke-linejoin="miter" stroke-miterlimit="10" stroke-dasharray="" stroke-dashoffset="0" style="mix-blend-mode: normal"><path d="M124.52094,77.93497v-11.82577h19.86726v11.82577z" fill="#0c9811"/><path d="M359.84125,82.59056v-14.66393h44.93793v14.66393z" fill="#4a4a4a"/><path d="M335.26502,200.45323l-89.04892,-7.58757l-1.21094,-64.41488l11.80279,0.27136l2.80708,49.71791l80.91752,10.78036z" fill="#424242"/><path d="M408.94943,99.73222l1.58473,-22.66063c0,0 4.42348,1.44041 6.43249,2.09458c1.77077,0.57661 11.02404,1.51959 13.35346,4.7747c2.32941,3.25511 -8.82431,4.13186 -9.01538,6.21843c-0.36953,4.03505 -1.40184,13.13965 -1.40184,13.13965z" fill="#3c3c3c"/><path d="M290.39665,166.21426c0.25186,-2.271 8.28738,-7.23703 10.32517,-12.86821c2.1105,-5.83238 2.12745,-21.54352 2.12745,-21.54352l23.39109,10.69938c0,0 -18.01687,29.77913 -23.39424,32.57335c-3.30228,1.71594 -12.76961,-5.97347 -12.44938,-8.86092z" fill="#606060"/><path d="M332.84586,278.489c0,0 13.31897,-22.10028 6.59827,-46.35602c-8.68535,-31.34632 -19.405,-70.03457 -22.91138,-82.68932c-0.23832,-0.86005 -0.48771,-1.97069 -0.74332,-3.26899c-0.56256,-2.85825 -48.91022,-2.55419 -49.47814,-6.56268c-0.32815,-2.31587 47.10735,-8.78412 46.80568,-11.13124c-1.17671,-9.15706 -2.07278,-17.56952 -2.07278,-17.56952l110.65187,-4.20457c0,0 -15.7228,11.24236 -13.60761,13.17405c2.05133,1.87337 -0.61458,4.10274 -3.11479,5.33113c-13.88221,6.8205 -26.0386,15.00136 -24.06084,22.10871c7.59353,27.28811 30.31921,122.03455 30.31921,122.03455z" fill="#424242"/><path d="M119.99401,141.33662v-34.53723c0,0 140.14534,-0.37881 141.53627,-0.3915c11.59775,-0.10575 162.45116,-1.48128 162.45116,-1.48128l-12.32881,18.43869c0,0 -7.30021,0.31913 -12.00875,0.52501c-6.72386,0.29392 -24.48844,1.07053 -24.48844,1.07053c0,0 -67.41311,12.96417 -77.30361,14.20295c-1.48885,0.18647 -177.85781,2.17283 -177.85781,2.17283z" fill="#2c2c2c"/><path d="M119.71065,107.00416v-33.16196l295.21923,0.2396l7.31264,31.92071z" fill="#a7a7a7"/><path d="M331.05942,293.8908v-20.12525l83.59739,-11.61078l-1.36429,10.54587l-12.61592,5.9704l-26.65736,15.21976z" fill="#717171"/><path d="M355.41164,254.63779c-4.98382,-2.83083 -31.17373,-92.18866 -27.51792,-99.76065c3.74751,-7.76195 35.16058,-18.93738 40.40989,-18.16826c5.05415,0.74051 28.45333,92.86923 27.51792,99.76065c-0.75158,5.5371 -35.04598,21.21503 -40.40989,18.16826z" fill="#2c2c2c"/><path d="M123.76987,127.15997l-70.3376,-0.37021l-4.07217,-52.9382h74.03955z" fill="#2c2c2c"/><path d="M59.40004,143.4014l-5.91829,-16.63675l13.30032,-3.64091l5.91829,16.63675z" fill="#2c2c2c"/><path d="M84.42762,142.11127l-5.91829,-16.63675l13.30032,-3.64082l5.91829,16.63675z" fill="#2c2c2c"/><path d="M115.13161,142.11127l-5.91829,-16.63675l13.30032,-3.64082l5.91829,16.63675z" fill="#2c2c2c"/><path d="M59.57927,144.08469l-0.45008,-5.47043l69.62169,-2.44282l0.22623,6.44645z" fill="#2c2c2c"/><path d="M128.45662,142.60869l-2.64309,-21.51159l14.85329,-1.82501l2.643,21.51159z" fill="#2c2c2c"/></g></g></svg>
