<svg version="1.1" xmlns="http://www.w3.org/2000/svg" xmlns:xlink="http://www.w3.org/1999/xlink" width="275.84992" height="205.91308" viewBox="0,0,275.84992,205.91308"><g transform="translate(-102.07504,-77.04346)"><g data-paper-data="{&quot;isPaintingLayer&quot;:true}" fill-rule="nonzero" stroke="none" stroke-width="0" stroke-linecap="butt" stroke-linejoin="miter" stroke-miterlimit="10" stroke-dasharray="" stroke-dashoffset="0" style="mix-blend-mode: normal"><path d="M250.61705,178.66311c0.33379,-3.00973 10.98308,-9.59113 13.68365,-17.05403c2.79706,-7.72951 2.81945,-28.55118 2.81945,-28.55118l30.9996,14.17972c0,0 -23.87727,39.46563 -31.00383,43.16872c-4.37652,2.27405 -16.9233,-7.91649 -16.49886,-11.74323z" fill="#606060"/><path d="M119.0632,88.89711v-10.68692h17.95398v10.68692z" fill="#750909"/><path d="M318.22544,90.29521v-13.25175h40.61028v13.25175z" fill="#767676"/><path d="M312.03385,207.73945l-103.98396,-6.90042l-1.41403,-58.58111l13.78229,0.24677l3.76726,40.26033l93.9994,14.75889z" fill="#909090"/><path d="M367.51474,108.37847l-4.97885,-19.91541h10.86289l4.52618,19.91541z" fill="#3c3c3c"/><path d="M294.68473,269.03797c0,0 12.03632,-19.97196 5.96283,-41.89181c-7.84893,-28.32758 -17.53625,-63.29004 -20.70495,-74.7261c-0.21537,-0.77723 -0.44075,-1.78091 -0.67174,-2.95418c-0.50838,-2.58299 -43.23821,-9.04097 -43.75143,-12.66342c-0.29655,-2.09285 41.60896,-1.20543 41.33634,-3.32652c-1.06339,-8.27521 -1.87317,-15.87753 -1.87317,-15.87753l99.99578,-3.79966c0,0 -14.20865,10.15969 -12.29716,11.90536c1.85378,1.69296 -0.55539,3.70763 -2.81483,4.81773c-12.54531,6.16366 -23.53101,13.55669 -21.74372,19.97958c6.86225,24.66019 27.39938,110.28227 27.39938,110.28227z" fill="#909090"/><path d="M102.33112,145.09375v-31.2112c0,0 126.64894,-0.34233 127.90593,-0.3538c10.48086,-0.09557 146.80665,-1.33863 146.80665,-1.33863l-11.14151,16.66299c0,0 -6.59718,0.28839 -10.85228,0.47445c-6.07633,0.26562 -22.13014,0.96744 -22.13014,0.96744c0,0 -60.92103,11.71568 -69.85905,12.83517c-1.34547,0.16851 -160.7296,1.96358 -160.7296,1.96358z" fill="#767676"/><path d="M102.07504,114.06761v-29.96837l266.78879,0.21653l6.60841,28.84666z" fill="#4c4c4c"/><path d="M293.07033,282.95654v-18.18713l75.54673,-10.49263l-1.2329,9.53027l-11.40098,5.39544l-24.09018,13.75405z" fill="#777777"/><path d="M315.07736,247.4837c-4.50387,-2.55822 -28.17161,-83.31063 -24.86787,-90.15342c3.38661,-7.01445 31.77452,-17.11366 36.5183,-16.41861c4.56742,0.6692 25.71319,83.92566 24.86787,90.15342c-0.6792,5.00386 -31.67095,19.17196 -36.5183,16.41861z" fill="#787878"/></g></g></svg>
