<svg version="1.1" xmlns="http://www.w3.org/2000/svg" xmlns:xlink="http://www.w3.org/1999/xlink" width="631.83426" height="145.94166" viewBox="0,0,631.83426,145.94166"><defs><linearGradient x1="108.31303" y1="183.98462" x2="246.68401" y2="183.98462" gradientUnits="userSpaceOnUse" id="color-1"><stop offset="0" stop-color="#f9f9f9" stop-opacity="0"/><stop offset="1" stop-color="#f9f9f9"/></linearGradient><linearGradient x1="-214.00832" y1="169.78007" x2="263.35938" y2="169.78007" gradientUnits="userSpaceOnUse" id="color-2"><stop offset="0" stop-color="#ffe954" stop-opacity="0"/><stop offset="1" stop-color="#ffe954"/></linearGradient></defs><g transform="translate(214.00833,-106.075)"><g data-paper-data="{&quot;isPaintingLayer&quot;:true}" fill-rule="nonzero" stroke="none" stroke-width="0" stroke-linecap="butt" stroke-linejoin="miter" stroke-miterlimit="10" stroke-dasharray="" stroke-dashoffset="0" style="mix-blend-mode: normal"><path d="M106.60479,212.88269l-2.2777,-54.30508l142.35692,19.00678v12.80048z" fill="url(#color-1)"/><path d="M-214.00832,173.56204v-7.56392h477.36761v7.56392z" fill="url(#color-2)"/><path d="M362.27865,127.25398v-10.08523h23.95242v10.08523z" fill="#5f5f5f"/><path d="M362.27865,119.1858v-13.1108h7.31179v13.1108z" fill="#5f5f5f"/><path d="M369.33827,119.1858v-13.1108c0,0 0.61979,4.06662 2.2782,7.81605c1.65842,3.74944 3.52085,5.29475 3.52085,5.29475z" fill="#5f5f5f"/><path d="M255.74019,165.98702v-9.02366h34.50213v9.02366z" fill="#2a2a2a"/><path d="M248.18177,124.84044v-7.00364h11.76609v7.00364z" fill="#750909"/><path d="M374.64441,202.72338l-68.14555,-4.52217l-0.92668,-38.39094l9.03218,0.16172l2.46886,26.38448l61.6022,9.67219z" fill="#909090"/><path d="M411.00363,137.60748l-3.26287,-13.0515h7.11896l2.96622,13.0515z" fill="#3c3c3c"/><path d="M332.294,180.30658c0.21875,-1.97242 7.19773,-6.28552 8.96754,-11.1763c1.83304,-5.06551 1.84772,-18.71093 1.84772,-18.71093l20.31549,9.29263c0,0 -15.64789,25.86368 -20.31826,28.29048c-2.86814,1.49029 -11.09063,-5.18804 -10.81248,-7.69589z" fill="#606060"/><path d="M363.27467,242.89517c0,0 7.88796,-13.08856 3.90772,-27.45366c-5.14377,-18.56439 -11.49232,-41.47692 -13.56892,-48.97151c-0.14114,-0.50935 -0.28884,-1.16711 -0.44022,-1.93601c-0.33317,-1.69276 -28.33602,-5.92497 -28.67236,-8.29893c-0.19434,-1.37154 27.2683,-0.78998 27.08964,-2.18002c-0.69689,-5.42313 -1.22757,-10.40529 -1.22757,-10.40529l65.53191,-2.49009c0,0 -9.31159,6.65812 -8.05891,7.80214c1.21487,1.10948 -0.36398,2.42978 -1.84469,3.15728c-8.22153,4.03934 -15.42097,8.88433 -14.24967,13.09355c4.49716,16.16098 17.9561,72.27313 17.9561,72.27313c0,0 -10.03818,1.16969 -16.29894,1.8992c-8.51148,0.99178 -30.12413,3.51021 -30.12413,3.51021z" fill="#909090"/><path d="M237.21645,161.66873v-20.45416c0,0 82.99898,-0.22435 83.82274,-0.23186c6.8686,-0.06263 96.20927,-0.87726 96.20927,-0.87726l-7.30156,10.92004c0,0 -4.32344,0.189 -7.112,0.31093c-3.9821,0.17407 -14.50291,0.63401 -14.50291,0.63401c0,0 -39.9244,7.67784 -45.78191,8.41149c-0.88175,0.11043 -105.33363,1.28683 -105.33363,1.28683z" fill="#767676"/><path d="M237.04858,141.33584v-19.63968l174.83917,0.1419l4.3308,18.90456z" fill="#4c4c4c"/><path d="M362.21678,252.01666v-11.91888l49.50931,-6.87631l-0.80798,6.24563l-7.47159,3.53588l-15.78742,9.01368z" fill="#777777"/><path d="M376.63901,228.76965c-2.95159,-1.67652 -18.46217,-54.59735 -16.29708,-59.08175c2.21941,-4.5969 20.82333,-11.21538 23.93215,-10.75988c2.99325,0.43856 16.85106,55.00041 16.29708,59.08175c-0.44511,3.27926 -20.75546,12.56428 -23.93215,10.75988z" fill="#787878"/><path d="M102.72571,161.53752v-39.7106h136.15062v39.7106z" fill="#404040"/><path d="M102.72571,161.43243v-20.06537h138.35676v20.06537z" fill="#767676"/><path d="M251.19932,191.74606v-28.41302h51.22637c0,0 1.04453,27.06553 0,28.41302c-0.40003,0.51979 -51.22637,0 -51.22637,0z" fill="#424242"/><path d="M243.44317,191.74601v-15.55455h18.74804v15.55455z" fill="#424242"/><path d="M396.83857,140.91509l-3.28173,-19.15392h4.4023l3.56185,19.13768z" fill="#3d9a4d"/><path d="M172.80233,141.35531v-19.45012h5.88302v19.45012z" fill="#3d6e99"/><path d="M392.09942,249.55521l-1.16076,-13.44205l3.96597,-0.63043l0.82991,11.98367z" fill="#6fd5d6"/></g></g></svg>
