<svg version="1.1" xmlns="http://www.w3.org/2000/svg" xmlns:xlink="http://www.w3.org/1999/xlink" width="482.05699" height="136.61906" viewBox="0,0,482.05699,136.61906"><defs><linearGradient x1="298.12172" y1="140.34887" x2="298.12172" y2="150.17248" gradientUnits="userSpaceOnUse" id="color-1"><stop offset="0" stop-color="#535156"/><stop offset="1" stop-color="#3d3c40"/></linearGradient><linearGradient x1="298.14465" y1="138.58566" x2="298.14465" y2="145.63851" gradientUnits="userSpaceOnUse" id="color-2"><stop offset="0" stop-color="#201f21"/><stop offset="1" stop-color="#29282a"/></linearGradient></defs><g transform="translate(1.0285,-111.69047)"><g data-paper-data="{&quot;isPaintingLayer&quot;:true}" fill-rule="nonzero" stroke-linejoin="miter" stroke-miterlimit="10" stroke-dasharray="" stroke-dashoffset="0" style="mix-blend-mode: normal"><path d="M231.58237,120.61212l0.84589,-2.5954l18.4562,6.01538l-0.84589,2.5954z" fill="#353338" stroke="none" stroke-width="0" stroke-linecap="butt"/><path d="M233.33903,129.46073l-4.84752,-16.6347l3.8968,-1.13556l4.84752,16.6347z" fill="#353338" stroke="none" stroke-width="0" stroke-linecap="butt"/><path d="M232.99168,128.12305v-4.44274h20.90485v4.44274z" fill="#353338" stroke="none" stroke-width="0" stroke-linecap="butt"/><path d="M106.60133,140.51612l-5.61906,-4.3704c0,0 11.87544,-5.31387 18.61821,-5.42525c23.46282,-0.3875 159.96357,0 159.96357,0v9.79565z" fill="#252427" stroke="none" stroke-width="0" stroke-linecap="butt"/><path d="M121.18919,137.74183v-7.83647h9.23591v7.83647z" fill="#2a292c" stroke="none" stroke-width="0" stroke-linecap="butt"/><path d="M151.81871,137.94334v-7.83647h9.23586v7.83647z" fill="#2a292c" stroke="none" stroke-width="0" stroke-linecap="butt"/><path d="M181.44068,137.94334v-7.83647h9.23591v7.83647z" fill="#2a292c" stroke="none" stroke-width="0" stroke-linecap="butt"/><path d="M212.27171,137.94334v-7.83647h9.23586v7.83647z" fill="#2a292c" stroke="none" stroke-width="0" stroke-linecap="butt"/><path d="M242.09519,137.94334v-7.83647h9.23591v7.83647z" fill="#2a292c" stroke="none" stroke-width="0" stroke-linecap="butt"/><path d="M272.65756,138.27921v-7.83647h9.23591v7.83647z" fill="#2a292c" stroke="none" stroke-width="0" stroke-linecap="butt"/><path d="M1.76263,154.75547c-4.27257,-1.58135 -3.12658,-17.229 0,-17.92744c4.80863,-1.07405 176.01138,0 176.01138,0v17.92744c0,0 -171.42425,1.69782 -176.01128,0z" fill="#313033" stroke="none" stroke-width="0" stroke-linecap="butt"/><path d="M344.62827,143.06351c0,0 1.61525,-7.18232 3.21257,-9.44744c1.35148,-1.91656 5.75759,-3.27308 5.75759,-3.27308l101.94628,5.53488c0,0 2.6493,5.08415 2.95328,7.52111c0.28745,2.30432 -1.17626,6.72499 -1.17626,6.72499z" fill="#29282b" stroke="#000000" stroke-width="0" stroke-linecap="butt"/><path d="M331.43264,248.29405c0,0 -24.4481,-43.68183 -28.87004,-51.58248c-1.31898,-2.35661 -12.0843,-2.91006 -12.0843,-2.91006l0.3533,-13.10918c0,0 -2.17344,-45.46141 -0.9076,-43.19966c0.24786,0.44287 171.54476,2.52804 171.54476,2.52804l1.48402,35.99775c0,0 -45.86695,35.75734 -84.58095,49.03333c-12.84979,4.40652 -26.40582,-7.11194 -35.24803,-5.35321c-3.29736,0.65586 32.67147,-4.49277 29.58535,-4.29503c-5.37488,0.34443 1.6818,-32.92139 -3.30638,-32.6424c-24.35425,1.36216 -39.2406,0.07703 -39.4951,1.39274c-0.69602,3.59776 0.68055,5.32636 1.23425,6.31568c8.42856,15.0594 24.71324,44.15558 24.71324,44.15558z" fill="#313033" stroke="none" stroke-width="0" stroke-linecap="butt"/><path d="M332.48391,248.30946c-2.89897,0.04479 -11.58274,-21.44414 -11.58274,-21.44414c0,0 6.52122,-16.7008 15.38191,-19.19096c5.97543,-1.67928 13.6251,11.03902 18.74093,9.6013c16.05884,-4.51307 54.54276,-15.32836 54.54276,-15.32836l11.58274,21.44414c0,0 -60.59229,24.48432 -88.66561,24.91797z" fill="#313033" stroke="none" stroke-width="0" stroke-linecap="butt"/><path d="M373.2643,217.01204c0,0 0,-20.98228 0,-30.78624c0,-8.96599 0,-25.74849 0,-25.74849c0,0 8.34579,0 15.11325,0c13.84474,0 63.25172,0 63.25172,0c0,0 2.67172,34.90153 0,38.62272c-5.12133,7.1331 -18.41857,20.04289 -31.34599,24.62901c-14.66222,5.20153 -47.01903,-6.71703 -47.01903,-6.71703z" fill="#313033" stroke="none" stroke-width="0" stroke-linecap="butt"/><path d="M458.90605,211.97429c-2.00205,-7.37894 -1.14347,-65.77805 0,-72.20778c0.5677,-3.19232 18.70542,-3.20885 19.59126,0c5.65654,20.49065 0.62352,46.39017 -3.35852,66.61024c-0.87697,4.45317 -14.23069,12.97649 -16.23274,5.59754z" fill="#222124" stroke="none" stroke-width="0" stroke-linecap="butt"/><path d="M377.7423,244.43976c-5.97986,-2.77227 -4.78833,-9.5945 -0.55974,-11.75478c2.81288,-1.43702 40.05213,-16.11904 48.69827,-19.03146c3.21832,-1.08407 5.22158,4.36103 5.08616,10.11615c-0.09753,4.14536 -1.30468,8.45153 -3.96662,10.59459c-18.47917,14.87713 -47.2086,11.02557 -49.25801,10.0755z" fill="#131313" stroke="none" stroke-width="0" stroke-linecap="butt"/><path d="M264.9766,196.91942v-19.31136h27.70762c0,0 0.72055,3.88607 0.74972,8.11118c0.03209,4.65518 -5.81286,10.28154 -9.34805,11.01529c-0.37934,0.07874 5.10259,-3.01046 5.35442,-6.265c0.16907,-2.18477 0.25143,-5.3114 -0.0602,-5.89366c-0.90856,-1.69777 -4.45216,-2.27726 -5.08949,-2.29656c-6.32117,-0.19113 -14.48454,-0.6878 -14.43749,-0.15431c0.27995,3.17257 0.63405,7.18549 0.80649,9.14004c0.17244,1.95455 3.52617,2.90638 6.61492,3.10854c4.66964,0.30559 9.86462,-1.71671 12.25413,-1.08256c4.19161,1.11239 -2.44195,3.34859 -2.44195,3.34859z" fill="#313033" stroke="none" stroke-width="0" stroke-linecap="butt"/><path d="M289.60561,194.96029v-4.19811h13.15412v4.19811z" fill="#313033" stroke="none" stroke-width="0" stroke-linecap="butt"/><path d="M227.52461,135.642v-9.30044h39.13944v9.30044z" fill="#3b393e" stroke="none" stroke-width="0" stroke-linecap="butt"/><path d="M226.26517,135.09439v-6.52348h42.01816v6.52348z" fill="#29272b" stroke="none" stroke-width="0" stroke-linecap="butt"/><path d="M97.72743,179.92321c0,0 0,-12.38042 0,-19.40043c0,-8.33335 -7.32761,-23.21692 -7.32761,-23.21692c0,0 26.36869,-4.12179 51.35709,-4.12179c35.29498,0 82.45522,0 104.58419,0c23.31173,0 58.21402,5.87734 58.21402,5.87734l-1.67928,40.86174z" fill="#313033" stroke="none" stroke-width="0" stroke-linecap="butt"/><path d="M287.12034,152.07781c-2.33354,-0.6199 -3.44622,-9.93278 0,-10.42678c3.44622,-0.49395 72.16325,-0.08272 72.74048,0c3.32058,0.35904 3.80491,9.88135 0,10.42678c-3.80491,0.54539 -68.76907,1.05506 -72.74048,0z" fill="#2a292b" stroke="none" stroke-width="0" stroke-linecap="butt"/><path d="M288.04622,151.18003c-2.24643,-0.50922 -3.31756,-8.15843 0,-8.56417c3.31756,-0.40574 69.46906,-0.06796 70.02472,0c3.1966,0.29491 3.66285,8.11617 0,8.56417c-3.66285,0.44796 -66.20158,0.86654 -70.02472,0z" fill="#3d3c3f" stroke="none" stroke-width="0" stroke-linecap="butt"/><path d="M426.57946,211.99887v-72.44763h7.67657v72.44768z" fill="#416098" stroke="none" stroke-width="0" stroke-linecap="butt"/><path d="M61.98314,154.46479l25.18875,-0.45798h42.13388v22.44091c0,0 -11.81277,0 -18.31907,0c-7.41834,0 -49.00355,-21.98293 -49.00355,-21.98293z" fill="#313033" stroke="none" stroke-width="0" stroke-linecap="butt"/><path d="M295.85474,150.17248v-9.82361h4.53397v9.82361z" fill="url(#color-1)" stroke="none" stroke-width="0" stroke-linecap="butt"/><path d="M295.14487,145.63851v-7.05285h5.99951v7.05285z" fill="url(#color-2)" stroke="none" stroke-width="0" stroke-linecap="butt"/><path d="M117.94166,156.60659v-22.41884l4.59972,-0.31002v22.72887z" fill="#a59914" stroke="none" stroke-width="0" stroke-linecap="butt"/><path d="M81.47051,198.20108c-8.32453,-6.00847 -2.14135,-27.22319 0,-27.45574c9.1483,-0.99339 176.50326,-0.14599 182.06942,0c8.16775,0.21421 2.74462,27.2103 0,27.45574c-16.94231,1.515 -164.64682,3.5828 -182.06942,0z" fill="#1d1d1e" stroke="none" stroke-width="0" stroke-linecap="butt"/><path d="M96.97656,165.78799c-3.14723,-2.60643 -4.07599,-10.21847 0,-10.463c4.07599,-0.24453 170.30522,-2.53202 174.38368,0c4.0163,2.49348 4.42068,10.19777 0,10.463c-4.42068,0.26524 -171.94113,0.36398 -174.38368,0z" fill="#3b3a3d" stroke="none" stroke-width="0" stroke-linecap="butt"/><path d="M421.96262,225.4083c-5.97986,-2.77227 -4.22859,-19.67 0,-21.83028c1.42513,-0.72806 6.51436,-1.95238 12.31352,-2.25732c5.64737,-0.29698 11.96803,0.33577 16.23375,-1.10115c3.21832,-1.08407 5.22163,4.36103 5.08616,10.11615c-0.09753,4.14536 -3.54375,7.33204 -6.2057,9.4751c-6.94076,5.58777 -14.24298,4.94506 -18.66748,5.40863c-7.35547,0.77062 -7.48066,0.78211 -8.76024,0.18887z" fill="#131313" stroke="none" stroke-width="0" stroke-linecap="butt"/><path d="M241.35762,195.53616c-0.47692,-0.53315 -0.69864,-4.06813 0,-4.56818c1.07904,-0.66377 17.14246,-0.23194 17.58321,0c0.6144,0.32337 0.42307,4.05524 0,4.56818c-0.2666,0.32317 -16.882,0.78372 -17.58316,0z" fill="#383839" stroke="none" stroke-width="0" stroke-linecap="butt"/><path d="M242.30597,193.29728l1.80145,1.56437" fill="none" stroke="#00801d" stroke-width="0.25" stroke-linecap="round"/><path d="M242.30597,193.20247l1.80145,-1.56437" data-paper-data="{&quot;index&quot;:null}" fill="none" stroke="#00801d" stroke-width="0.25" stroke-linecap="round"/><path d="M247.89984,193.29728l-1.80145,1.56437" data-paper-data="{&quot;index&quot;:null}" fill="none" stroke="#00801d" stroke-width="0.25" stroke-linecap="round"/><path d="M246.09839,191.6381l1.80145,1.56437" data-paper-data="{&quot;index&quot;:null}" fill="none" stroke="#00801d" stroke-width="0.25" stroke-linecap="round"/><path d="M246.1932,193.24988c0,0.57602 -0.4669,1.04292 -1.04292,1.04292c-0.57602,0 -1.04292,-0.46695 -1.04292,-1.04292c0,-0.57602 0.4669,-1.04292 1.04292,-1.04292c0.57602,0 1.04292,0.4669 1.04292,1.04292z" fill="none" stroke="#006518" stroke-width="0.2" stroke-linecap="butt"/><text transform="translate(248.64386,191.92701) scale(0.01914,0.01914)" font-size="40" xml:space="preserve" fill="#000000" fill-rule="nonzero" stroke="none" stroke-width="1" stroke-linecap="butt" stroke-linejoin="miter" stroke-miterlimit="10" stroke-dasharray="" stroke-dashoffset="0" font-family="Sans Serif" font-weight="normal" text-anchor="start" style="mix-blend-mode: normal"><tspan x="0" dy="0">Property of RAMCOR </tspan><tspan x="0" dy="46.150000000000006px">Department of Security</tspan></text><text transform="translate(248.69127,194.0142) scale(0.02725,0.02725)" font-size="40" xml:space="preserve" fill="#000000" fill-rule="nonzero" stroke="none" stroke-width="1" stroke-linecap="butt" stroke-linejoin="miter" stroke-miterlimit="10" stroke-dasharray="" stroke-dashoffset="0" font-family="Sans Serif" font-weight="normal" text-anchor="start" style="mix-blend-mode: normal"><tspan x="0" dy="0">Model MR12 ACR</tspan></text><text transform="translate(248.73868,195.10327) scale(0.02735,0.02735)" font-size="40" xml:space="preserve" fill="#000000" fill-rule="nonzero" stroke="none" stroke-width="1" stroke-linecap="butt" stroke-linejoin="miter" stroke-miterlimit="10" stroke-dasharray="" stroke-dashoffset="0" font-family="Sans Serif" font-weight="normal" text-anchor="start" style="mix-blend-mode: normal"><tspan x="0" dy="0">ID:#001DEV2</tspan></text></g></g></svg>
